# xmcd
#
# Track frame offsets: 
#        150
#        17425
#        37630
#        56891
#        82693
#        116626
#        142140
#        156996
#
# Disc length: 2361 seconds
#
# Revision: 0
# Processed by: cddbd v1.5.1PL2 Copyright (c) Steve Scherf et al.
# Submitted via: ExactAudioCopy v0.95b4
#
DISCID=5c093708
DTITLE=Alexis Korner - Blues Incorporated at the Cavern
DYEAR=1964
DGENRE=Blues
TTITLE0=Overdrive
TTITLE1=Whoa Baby
TTITLE2=Every Day I Have The Blues
TTITLE3=Hoochie Coochie Man
TTITLE4=Herbie's Tune
TTITLE5=Little Bitty Gal Blues
TTITLE6=Well All Right, O.K. You Win
TTITLE7=Kansas City
EXTD=
EXTT0=
EXTT1=
EXTT2=
EXTT3=
EXTT4=
EXTT5=
EXTT6=
EXTT7=
PLAYORDER=
